<svg id="Capa_1" data-name="Capa 1" xmlns="http://www.w3.org/2000/svg" viewBox="0 0 1028.17 391.7"><defs><style>.cls-1{font-size:117.11px;}.cls-1,.cls-4,.cls-8,.cls-9{fill:#fff;}.cls-1,.cls-4,.cls-8{font-family:Montserrat-Medium, Montserrat;font-weight:500;}.cls-2{letter-spacing:-0.02em;}.cls-3{letter-spacing:0em;}.cls-4{font-size:45.96px;}.cls-5{letter-spacing:-0.07em;}.cls-6{letter-spacing:0em;}.cls-7{letter-spacing:-0.02em;}.cls-8{font-size:47.98px;}</style></defs><title>logo</title><text class="cls-1" transform="translate(362.21 160.12) scale(1.03 1)">Za<tspan class="cls-2" x="147.32" y="0">c</tspan><tspan x="211.14" y="0">a</tspan><tspan class="cls-3" x="280.24" y="0">t</tspan><tspan x="328.25" y="0">e</tspan><tspan class="cls-2" x="397.58" y="0">c</tspan><tspan x="461.4" y="0">as</tspan></text><text class="cls-4" transform="translate(372.22 229.58) scale(1.06 1)">GOBIERNO DEL ES<tspan class="cls-5" x="432.86" y="0">T</tspan><tspan class="cls-6" x="456.62" y="0">A</tspan><tspan class="cls-7" x="490.95" y="0">D</tspan><tspan x="525.38" y="0">O</tspan></text><text class="cls-8" transform="translate(542.56 297.65) scale(1.09 1)">2021-2027</text><path class="cls-9" d="M175.68,58.85H286.35c1.88,0,1.88,0,1.88,1.82,0,4.8,0,9.6,0,14.39,0,4.33.14,8.66.14,13q-.06,44.38-.14,88.76c0,16.34.09,32.69-.13,49a108.61,108.61,0,0,1-29.2,71.59,110.45,110.45,0,0,1-50.37,31.07,106.78,106.78,0,0,1-20.31,3.78,141.31,141.31,0,0,1-23.9.15,107.09,107.09,0,0,1-50.18-16.9C88.26,298.84,72,275.35,65.28,245.32a90.38,90.38,0,0,1-2.18-17.5q-.16-7.06-.16-14.12,0-41.46,0-82.91,0-35.14.14-70.29c0-1.65,0-1.65,1.68-1.65Zm103.23,9.5h-2.09l-106.22,0H74.45c-2,0-2,0-2,2q0,58.89,0,117.8c0,9.34,0,18.68,0,28,0,8,.08,16,1.51,23.94a100.48,100.48,0,0,0,98.16,83.13c2.55,0,5.09,0,7.64,0a83.47,83.47,0,0,0,17.55-1.76c27.07-5.52,48.56-19.61,64.21-42.38,11.69-17,17.26-36,17.36-56.59q.1-21.84.07-43.68,0-54.32,0-108.63Z"/><path class="cls-9" d="M269.39,152.58c0,21.44-.09,42.87,0,64.31a94.92,94.92,0,0,1-7,37.58,93.21,93.21,0,0,1-43.64,47.71,91.44,91.44,0,0,1-30.09,9.62,96.16,96.16,0,0,1-20.42.6,87.15,87.15,0,0,1-26.41-5.8C112.67,295,93.66,274.06,85.1,243.78a87.86,87.86,0,0,1-3.18-24.1q0-69.15,0-138.3c0-.42,0-.85,0-1.27-.06-.79.22-1.23,1.08-1.13a4.3,4.3,0,0,0,.51,0h1q38.21.08,76.4.14c15.36,0,30.72-.14,46.09-.13,20.24,0,40.49.1,60.73.11,1.31,0,1.61.38,1.61,1.65q-.06,28.84,0,57.69v14.13Zm-176,85.13c.11.54.21,1.08.33,1.6a81.21,81.21,0,0,0,7.07,19,82,82,0,0,0,36.75,36.16,83.33,83.33,0,0,0,30.91,8.42,83.75,83.75,0,0,0,72.07-30.11,83.39,83.39,0,0,0,17.15-34.12c.19-.79,0-1.15-.79-1.36-5.83-1.55-11.07-4.39-16.28-7.35-4.92-2.81-9.85-5.68-15-8a140.1,140.1,0,0,0-36.47-10.55,81.81,81.81,0,0,0-19.89-.87,133.19,133.19,0,0,0-23.44,4.29,131.52,131.52,0,0,0-34.51,14.6,126.05,126.05,0,0,1-11.71,6.09A60.44,60.44,0,0,1,93.39,237.71ZM260,88.46h-1.53q-82.77,0-165.54,0c-1.27,0-1.64.3-1.64,1.61q.07,28,0,56v1.69c1.67-.91,3.09-1.63,4.45-2.45,5.57-3.32,11.11-6.68,16.67-10,3.43-2.05,7-3.37,11.11-2.61a20.76,20.76,0,0,1,7,2.84c2,1.2,4,2.36,6,3.57.18-.48.31-.75.38-1,2.77-10.39,9.13-18,18.16-23.57,8.31-5.1,17.35-7.42,27-5.61,14.38,2.71,24.64,10.72,29.91,24.65a1.52,1.52,0,0,0,.9.89c3.93.66,7,2.75,9.85,5.44,2.36,2.24,5,4.24,7.42,6.37a1.75,1.75,0,0,0,2.37.14c4-2.46,8-4.9,12.11-7.26,2.35-1.35,4.93-2.27,7.65-1.57a47.77,47.77,0,0,1,5.87,2.28,20,20,0,0,1,1.78.94Zm-.46,139.9c.17-2.53.44-4.71.45-6.9.07-11.21.05-22.41.1-33.62a1.48,1.48,0,0,0-1.15-1.55c-4.35-1.79-8.67-3.65-13-5.37-5.19-2-10.42-4-15.66-6-1.62-.6-1.63-.5-2.27,1.06a49,49,0,0,1-2.69,6.16c-3.74,6.36-11.5,7.28-16.77,2.11-3.49-3.43-5.54-7.77-7.78-12-1.58-3-3.33-5.89-5-8.81a2.77,2.77,0,0,0-3.17-1.26,52.66,52.66,0,0,0-13.16,4.16c-17,7.4-34,14.8-50.93,22.4-11.82,5.3-23.49,11-35.26,16.39a2.69,2.69,0,0,0-1.89,2.93c.13,4.2,0,8.4.06,12.6,0,2.45.28,4.89.45,7.49a11.15,11.15,0,0,0,1.49-.41c3.65-1.67,7.49-3,10.89-5.12A147.55,147.55,0,0,1,130,210,154.13,154.13,0,0,1,160.91,202c3.55-.53,7.14-.81,10.75-1.2a2,2,0,0,0,.14-.47c0-2.71,0-5.43,0-8.15,0-.77-.44-.87-1.08-.86-1.91,0-3.82,0-5.73,0-.7,0-1-.23-1-1,0-1.74.05-3.48,0-5.22,0-.88.35-1.07,1.14-1,1.83,0,3.65,0,5.48,0,.88,0,1.21-.28,1.19-1.16,0-2.08,0-4.16,0-6.24,0-.75.23-1.06,1-1,1.65,0,3.31.06,5,0,.93,0,1.16.34,1.15,1.19,0,1.87,0,3.74,0,5.6-.05,1.22.25,1.75,1.61,1.67,2.11-.13,4.22,0,6.41,0v7.21c-2.36,0-4.64,0-6.93,0-.76,0-1.07.26-1.06,1,0,2.51,0,5,0,7.51,0,.84.39,1.08,1.17,1.11,1.44,0,2.88.1,4.31.27a160.41,160.41,0,0,1,22.68,4.27c13.35,3.63,26.12,8.62,37.9,16a90.11,90.11,0,0,0,8.51,4.55C255.37,227,257.35,227.55,259.5,228.36ZM91.28,195.43l70-32.06-1.55-.84c-11.28-6.3-22.62-12.51-33.82-19a8,8,0,0,0-9.19.12c-8,4.85-16.06,9.46-24.14,14.12a2.16,2.16,0,0,0-1.3,2.16c0,11.33,0,22.67,0,34ZM202,134.08a18.72,18.72,0,0,0-.81-1.77c-5.44-9-13.56-13.86-24-14.47-7.68-.46-14.45,2.43-20.5,7S146.62,135.35,145.45,143a1.29,1.29,0,0,0,.82,1.58c2.43,1.29,4.88,2.56,7.26,3.94a1.53,1.53,0,0,0,2-.16c3.85-3.2,7.75-6.33,11.56-9.57,2.77-2.35,5.79-4.38,9.45-4.55,6-.28,12-.16,17.92-.2C196.94,134.06,199.38,134.08,202,134.08Zm57.86,42.28a4.33,4.33,0,0,0,.14-.74c0-7.63,0-15.27,0-22.91a1.82,1.82,0,0,0-.8-1.26c-1.93-1.23-4-2.27-5.86-3.56s-3.27-1.12-5.09,0a230.38,230.38,0,0,1-35.49,18.66L209,168.16c1.75,2.86,3.41,5.6,5.1,8.32a4.73,4.73,0,0,0,1,1.13,1.22,1.22,0,0,0,2.11-.3,12.83,12.83,0,0,0,.85-1.84c.76-1.83,1.4-3.73,2.29-5.5a8.27,8.27,0,0,1,9.7-4.7,32.37,32.37,0,0,1,5.37,1.48c7.69,3,15.34,6.07,23,9.11C258.88,176,259.36,176.18,259.89,176.36Zm-38.06-24.44c-2.47-2.27-4.83-4.52-7.28-6.67a7,7,0,0,0-4.67-1.72q-14.7-.17-29.4-.26a10.35,10.35,0,0,0-7.67,3.13c-1.54,1.51-3.25,2.86-4.9,4.25-1.28,1.09-2.6,2.14-4,3.27a6.51,6.51,0,0,0,.71.5c2.45,1.26,4.91,2.48,7.35,3.77a2.59,2.59,0,0,0,2.26.06c5-1.74,10-3.59,15.17-5,4.19-1.16,8.38-.87,11.76,2.43A29.4,29.4,0,0,1,204,159a1,1,0,0,0,1.47.41c5.22-2.34,10.45-4.64,15.67-7A4.88,4.88,0,0,0,221.83,151.92Z"/></svg>