<svg id="Capa_1" data-name="Capa 1" xmlns="http://www.w3.org/2000/svg" viewBox="0 0 1283.26 1227.56"><defs><style>.cls-1{font-size:221.79px;}.cls-1,.cls-10,.cls-5,.cls-9{fill:#fff;}.cls-1,.cls-5,.cls-9{font-family:Montserrat-Medium, Montserrat;font-weight:500;}.cls-2{letter-spacing:-0.02em;}.cls-3{letter-spacing:0em;}.cls-4{letter-spacing:-0.02em;}.cls-5{font-size:87.04px;}.cls-6{letter-spacing:-0.07em;}.cls-7{letter-spacing:0em;}.cls-8{letter-spacing:-0.02em;}.cls-9{font-size:90.87px;}</style></defs><title>logo-w</title><text class="cls-1" transform="translate(64.91 891.33) scale(1.03 1)">Za<tspan class="cls-2" x="279.01" y="0">c</tspan><tspan x="399.88" y="0">a</tspan><tspan class="cls-3" x="530.73" y="0">t</tspan><tspan x="621.67" y="0">e</tspan><tspan class="cls-4" x="752.96" y="0">c</tspan><tspan x="873.83" y="0">as</tspan></text><text class="cls-5" transform="translate(83.86 1022.87) scale(1.06 1)">GOBIERNO DEL ES<tspan class="cls-6" x="819.77" y="0">T</tspan><tspan class="cls-7" x="864.78" y="0">A</tspan><tspan class="cls-8" x="929.8" y="0">D</tspan><tspan x="995" y="0">O</tspan></text><text class="cls-9" transform="translate(406.46 1151.78) scale(1.09 1)">2021-2027</text><path class="cls-10" d="M641.7,49.43h249c4.23,0,4.23,0,4.23,4.11,0,10.79,0,21.59,0,32.38,0,9.74.32,19.47.31,29.21Q895.19,215,895,314.86c-.06,36.78.21,73.56-.29,110.33-.47,34.7-8.68,67.74-23.53,99.09a239.28,239.28,0,0,1-42.18,62c-31.49,33.45-69.1,57.1-113.34,69.92a240.55,240.55,0,0,1-45.71,8.51,318.8,318.8,0,0,1-53.78.33,241.26,241.26,0,0,1-112.93-38c-58.26-37.54-94.79-90.4-110-158a202.21,202.21,0,0,1-4.9-39.38c-.26-10.6-.36-21.19-.37-31.79q0-93.28,0-186.57.08-79.08.32-158.17c0-3.72,0-3.72,3.77-3.72ZM874,70.82h-4.71l-239,0H413.9c-4.54,0-4.54,0-4.54,4.46L409.3,340.4c0,21,0,42-.06,63.05-.08,18,.17,36,3.39,53.89q11.78,65.25,56.58,114c26,28.13,56.94,48.85,93.39,61.08a221.88,221.88,0,0,0,70.94,12c5.73,0,11.45,0,17.18,0a187.72,187.72,0,0,0,39.49-4c60.93-12.42,109.28-44.13,144.5-95.36,26.31-38.27,38.85-81,39.07-127.35.16-32.76.14-65.53.16-98.3Q874,197.21,874,75Z"/><path class="cls-10" d="M852.57,260.36c0,48.24-.19,96.48.08,144.72.15,29.25-4.41,57.53-15.71,84.56Q807.14,560.92,738.73,597A206.11,206.11,0,0,1,671,618.67a217.4,217.4,0,0,1-46,1.34,196.18,196.18,0,0,1-59.43-13c-65.73-26.14-108.5-73.22-127.77-141.36a198.15,198.15,0,0,1-7.15-54.25q0-155.61,0-311.21c0-1,.06-1.91,0-2.86-.13-1.79.5-2.76,2.43-2.53a11,11,0,0,0,1.15,0h2.29q86,.16,171.92.32c34.57,0,69.14-.31,103.71-.29,45.55,0,91.11.23,136.67.25,3,0,3.63.86,3.62,3.71q-.13,64.92-.06,129.82v31.8Zm-396,191.57c.25,1.22.46,2.42.74,3.61a181.62,181.62,0,0,0,15.91,42.76c18.88,35.93,46.36,63.23,82.69,81.36a187.53,187.53,0,0,0,69.56,19c21.29,1.69,42.31.34,63-5q59.64-15.43,99.18-62.77a187.34,187.34,0,0,0,38.58-76.76c.44-1.8,0-2.59-1.76-3.06-13.13-3.49-24.91-9.89-36.63-16.56-11.09-6.31-22.18-12.76-33.8-18a314.81,314.81,0,0,0-82.08-23.75c-14.88-2.24-29.76-3.35-44.76-2a301.91,301.91,0,0,0-52.75,9.66C547.1,408,521,418.32,496.75,433.3c-8.4,5.19-17.43,9.41-26.36,13.69C466.06,449.07,461.31,450.26,456.53,451.93ZM831.35,116.08h-3.42q-186.27,0-372.53-.07c-2.86,0-3.7.68-3.69,3.63q.15,63,.06,126.08v3.82c3.76-2.06,7-3.68,10-5.51q18.8-11.24,37.53-22.55c7.69-4.62,15.77-7.59,25-5.88A46.82,46.82,0,0,1,540.1,222c4.45,2.7,8.95,5.3,13.56,8,.4-1.08.69-1.68.86-2.31,6.24-23.37,20.55-40.57,40.87-53,18.71-11.48,39.05-16.71,60.75-12.62,32.36,6.09,55.46,24.12,67.32,55.47a3.41,3.41,0,0,0,2,2c8.85,1.49,15.78,6.19,22.16,12.24,5.31,5.05,11.15,9.55,16.7,14.35,1.78,1.53,3.32,1.54,5.34.3,9-5.53,18.08-11,27.25-16.32,5.29-3.05,11.08-5.12,17.22-3.53,4.53,1.17,8.82,3.32,13.19,5.11,1.27.52,2.44,1.28,4,2.12Zm-1,314.82c.39-5.7,1-10.62,1-15.54.15-25.22.12-50.43.23-75.64,0-2.05-1-2.84-2.61-3.51-9.78-4-19.49-8.2-29.33-12.08-11.69-4.61-23.46-9-35.25-13.4-3.64-1.35-3.65-1.13-5.1,2.39-1.93,4.66-3.51,9.54-6,13.85-8.43,14.31-25.89,16.38-37.75,4.74-7.84-7.7-12.46-17.48-17.49-27-3.56-6.73-7.5-13.26-11.36-19.83-1.59-2.7-4-3.32-7.12-2.85-10.38,1.57-20.11,5.24-29.61,9.38-38.28,16.64-76.55,33.3-114.62,50.39-26.6,11.95-52.86,24.66-79.34,36.89-3.08,1.43-4.38,3-4.27,6.59.3,9.45,0,18.91.15,28.37.09,5.5.64,11,1,16.84a23.5,23.5,0,0,0,3.36-.92c8.21-3.76,16.85-6.85,24.51-11.52a331.94,331.94,0,0,1,58.18-28.53,348.51,348.51,0,0,1,69.59-17.86c8-1.19,16.07-1.81,24.18-2.7a3.5,3.5,0,0,0,.33-1c0-6.11,0-12.22.07-18.34,0-1.74-1-2-2.43-1.94-4.29.05-8.59,0-12.89,0-1.6,0-2.24-.52-2.21-2.15.07-3.91.11-7.83,0-11.74-.06-2,.8-2.41,2.57-2.37,4.11.09,8.22-.06,12.32.06,2,.07,2.72-.63,2.69-2.6-.08-4.68,0-9.36,0-14,0-1.69.53-2.39,2.32-2.34,3.72.11,7.45.14,11.17,0,2.1-.08,2.62.77,2.58,2.68-.09,4.2.11,8.41-.07,12.6-.12,2.75.54,3.94,3.62,3.75,4.73-.28,9.49-.07,14.42-.07v16.21c-5.33,0-10.46.05-15.59,0-1.72,0-2.42.56-2.41,2.28,0,5.64,0,11.28,0,16.91,0,1.89.87,2.43,2.62,2.48,3.24.1,6.49.23,9.7.62a361.16,361.16,0,0,1,51,9.61c30,8.16,58.77,19.38,85.29,36a204.37,204.37,0,0,0,19.15,10.25C821,427.73,825.49,429.07,830.32,430.9ZM451.77,356.79l157.48-72.15c-1.35-.73-2.42-1.3-3.48-1.89-25.4-14.18-50.92-28.15-76.12-42.67-7.4-4.27-13.47-4.14-20.68.27-17.9,10.92-36.14,21.3-54.32,31.78-2.08,1.2-2.94,2.42-2.93,4.86.09,25.51,0,51,0,76.51ZM701,218.72a42.91,42.91,0,0,0-1.84-4c-12.24-20.37-30.5-31.19-54-32.57-17.29-1-32.52,5.47-46.14,15.74s-22.76,23.66-25.39,41c-.3,2,.38,2.76,1.86,3.55,5.47,2.91,11,5.77,16.34,8.87a3.43,3.43,0,0,0,4.56-.34c8.66-7.21,17.44-14.26,26-21.54,6.24-5.31,13-9.86,21.27-10.25,13.42-.62,26.88-.36,40.32-.45C689.54,218.69,695,218.72,701,218.72Zm130.2,95.16a10.57,10.57,0,0,0,.31-1.67c0-17.18,0-34.37-.07-51.55a4.09,4.09,0,0,0-1.79-2.84c-4.34-2.77-9-5.1-13.2-8-4-2.78-7.35-2.51-11.44.1a519.12,519.12,0,0,1-79.87,42c-2.62,1.1-5.24,2.18-8.49,3.52,3.94,6.45,7.67,12.62,11.48,18.74a11.28,11.28,0,0,0,2.28,2.55c1.87,1.6,3.46,1.4,4.75-.68a28.75,28.75,0,0,0,1.9-4.14c1.72-4.13,3.15-8.4,5.17-12.38,4.46-8.83,12.09-12.51,21.81-10.59a72.46,72.46,0,0,1,12.08,3.33c17.31,6.72,34.53,13.66,51.79,20.51C828.94,313.15,830,313.47,831.2,313.88Zm-85.64-55c-5.56-5.11-10.88-10.16-16.38-15A15.85,15.85,0,0,0,718.65,240c-22-.23-44.1-.47-66.16-.59a23.43,23.43,0,0,0-17.26,7c-3.45,3.42-7.29,6.44-11,9.58-2.89,2.45-5.85,4.81-9,7.35a15.12,15.12,0,0,0,1.59,1.14c5.51,2.82,11.06,5.58,16.54,8.47a5.82,5.82,0,0,0,5.09.13c11.33-3.9,22.59-8.06,34.13-11.24,9.44-2.61,18.86-2,26.46,5.47a64.56,64.56,0,0,1,6.27,7.42c1,1.3,1.8,1.59,3.3.92,11.74-5.25,23.51-10.43,35.26-15.65A10.75,10.75,0,0,0,745.56,258.87Z"/></svg>