<svg id="Capa_1" data-name="Capa 1" xmlns="http://www.w3.org/2000/svg" xmlns:xlink="http://www.w3.org/1999/xlink" viewBox="0 0 426.68 414.74"><defs><style>.cls-1{fill:none;}.cls-2{font-size:82.04px;}.cls-10,.cls-2,.cls-6{fill:#585858;font-family:Montserrat-Medium, Montserrat;font-weight:500;}.cls-3{letter-spacing:-0.02em;}.cls-4{letter-spacing:0em;}.cls-5{letter-spacing:0em;}.cls-6{font-size:32.2px;}.cls-7{letter-spacing:-0.07em;}.cls-8{letter-spacing:-0.02em;}.cls-9{letter-spacing:0em;}.cls-10{font-size:33.61px;}.cls-11{clip-path:url(#clip-path);}.cls-12{fill:#d6abb0;}.cls-13{fill:#b67d76;}.cls-14{fill:#ac5952;}.cls-15{fill:#934c47;}.cls-16{fill:#6e2d2e;}.cls-17{fill:#a85b59;}.cls-18{fill:#b97b76;}.cls-19{fill:#d2aeae;}.cls-20{fill:#b67d78;}.cls-21{fill:#ac5a58;}.cls-22{fill:#934f4a;}.cls-23{fill:#6a2a29;}.cls-24{fill:#944847;}.cls-25{fill:#a75a54;}.cls-26{fill:#fff;}.cls-27{clip-path:url(#clip-path-2);}.cls-28{fill:#e0abb2;}.cls-29{fill:#fefefe;}.cls-30{fill:#cb7a78;}.cls-31{fill:#bf5854;}.cls-32{fill:#aa4946;}.cls-33{fill:#7e272c;}</style><clipPath id="clip-path" transform="translate(-19.22 -18.68)"><path id="SVGID" class="cls-1" d="M141.7,18.68H329.38a0,0,0,0,1,0,0V152.92a91.22,91.22,0,0,1-91.22,91.22h-5.24a91.22,91.22,0,0,1-91.22-91.22V18.68A0,0,0,0,1,141.7,18.68Z"/></clipPath><clipPath id="clip-path-2" transform="translate(-19.22 -18.68)"><path id="SVGID-2" data-name="SVGID" class="cls-1" d="M160.17,37h148.6a0,0,0,0,1,0,0V150a74.3,74.3,0,0,1-74.3,74.3h0a74.3,74.3,0,0,1-74.3-74.3V37A0,0,0,0,1,160.17,37Z"/></clipPath></defs><title>logo</title><text class="cls-2" transform="translate(0 308.65) scale(1.03 1)">Za<tspan class="cls-3" x="103.21" y="0">c</tspan><tspan class="cls-4" x="147.92" y="0">a</tspan><tspan class="cls-5" x="196.33" y="0">t</tspan><tspan x="229.97" y="0">e</tspan><tspan class="cls-3" x="278.53" y="0">c</tspan><tspan class="cls-4" x="323.25" y="0">as</tspan></text><text class="cls-6" transform="translate(7.01 357.31) scale(1.06 1)">GOBIERNO DEL ES<tspan class="cls-7" x="303.25" y="0">T</tspan><tspan x="319.9" y="0">A</tspan><tspan class="cls-8" x="343.95" y="0">D</tspan><tspan class="cls-9" x="368.07" y="0">O</tspan></text><text class="cls-10" transform="translate(126.35 405) scale(1.09 1)">2021-2027</text><g class="cls-11"><rect class="cls-12" x="122.68" width="30.22" height="19.04"/><rect class="cls-13" x="152.9" width="27.6" height="19.04"/><rect class="cls-14" x="180.5" width="29.21" height="19.04"/><rect class="cls-15" x="209.72" width="54" height="19.04"/><rect class="cls-16" x="263.71" width="46.64" height="19.04"/><rect class="cls-17" x="290.11" y="19.04" width="20.25" height="42.81"/><rect class="cls-18" x="290.91" y="61.85" width="19.44" height="68.3"/><polygon class="cls-19" points="290.11 130.16 310.36 130.16 310.36 184.76 297.51 186.37 284.67 178.51 290.11 130.16"/><polygon class="cls-20" points="289.71 207.46 264.13 186.37 274.21 171.32 301.62 189.69 289.71 207.46"/><polygon class="cls-21" points="244.98 223.64 241.35 210.75 272.46 193.24 282.87 201.82 265.32 215.79 244.98 223.64"/><polygon class="cls-22" points="204.07 226.46 206.09 213.17 241.35 210.75 244.98 223.64 204.07 226.46"/><polygon class="cls-23" points="120.86 130.16 133.15 130.16 141.51 166.62 155.72 186.37 187.55 207.46 206.09 213.17 204.07 226.46 190.98 225.46 167.81 218.61 144.24 200.47 129.73 176.5 120.86 155.74 120.86 130.16"/><rect class="cls-24" x="122.68" y="105.58" width="10.48" height="24.58"/><rect class="cls-25" x="122.68" y="68.3" width="10.48" height="37.27"/><rect class="cls-18" x="122.68" y="19.04" width="10.48" height="49.26"/></g><path class="cls-26" d="M131,8.66H301.63a0,0,0,0,1,0,0V131.23a83.85,83.85,0,0,1-83.85,83.85h-3A83.85,83.85,0,0,1,131,131.23V8.66a0,0,0,0,1,0,0Z"/><g class="cls-27"><rect class="cls-28" x="140.94" y="18.2" width="148.6" height="57.12"/><ellipse class="cls-29" cx="216.18" cy="65.12" rx="25.31" ry="21.53"/><path class="cls-30" d="M219.16,95.37s8-6.21,10.88-9.07a14.1,14.1,0,0,1,7.4-4.08h24.93s5.44,0,7.11,2.27c3.76,5.12,17.68,18.28,17.68,18.28Z" transform="translate(-19.22 -18.68)"/><path class="cls-31" d="M160.16,91.44s18.08-9.53,23.94-13c7.4-4.38,9.52-2.45,13.3-.15,5.27,3.21,6.78,4.39,19.79,13.15a44,44,0,0,0,15,6.59l26.45,2.17S284,89.93,295.16,82.52c1.73-1.14,3.52-2.84,8.16-1.36A17,17,0,0,1,308.76,84v23.88L160.16,124.23Z" transform="translate(-19.22 -18.68)"/><path class="cls-32" d="M160.16,124.23S217.64,92.78,245.9,86.3c7.26-1.66,8.62,2.27,8.62,2.27a159.14,159.14,0,0,1,9.82,16.69c2.35,4.75,8.35,2.14,9.22,0,2.2-5.43,2.41-6.12,2.41-6.12s1.06-4.08,6.2-2.41c9,2.9,26.6,11.18,26.6,11.18v36.87H160.16Z" transform="translate(-19.22 -18.68)"/><path class="cls-33" d="M160.16,144.78c0-2,6.42,1.25,8,0,26.8-21.56,65.08-23.17,65.08-23.17v-12.7h-7.46v-3.62h7.46V98h3.42v7.26l7.26-.1v3.52l-7,.05v12.65s35,2.79,63.46,21.76c4.84,3.22,8.45-.55,8.46,1.61.65,79.38-70.91,79.37-70.91,79.37S160.16,229.8,160.16,144.78Z" transform="translate(-19.22 -18.68)"/></g></svg>